<svg width="32" height="32" viewBox="0 0 32 32" fill="none" xmlns="http://www.w3.org/2000/svg">
  <rect width="32" height="32" rx="6" fill="#0EA5E9"/>
  <g transform="translate(6, 4) scale(0.15)">
    <!-- Falcon bird silhouette -->
    <path fill="white" d="M60 40 Q50 45, 45 55 Q40 65, 40 80 Q40 95, 50 110 Q55 120, 60 125 L55 145 Q53 155, 58 160 Q62 165, 68 163 L75 140 Q80 125, 82 118 Q85 110, 95 108 Q105 106, 110 115 Q115 125, 120 140 L127 163 Q133 165, 137 160 Q142 155, 140 145 L135 125 Q140 120, 145 110 Q155 95, 155 80 Q155 65, 150 55 Q145 45, 135 40 Q125 35, 115 35 L110 30 Q105 25, 100 23 Q95 20, 90 20 Q85 20, 80 23 Q75 25, 70 30 L65 35 Q55 35, 60 40 Z"/>

    <!-- Wing details -->
    <path fill="white" opacity="0.3" d="M70 60 Q75 70, 80 85 Q83 95, 85 105 L75 110 Q70 95, 68 85 Q66 75, 70 60 Z"/>
    <path fill="white" opacity="0.3" d="M125 60 Q120 70, 115 85 Q112 95, 110 105 L120 110 Q125 95, 127 85 Q129 75, 125 60 Z"/>

    <!-- Eye -->
    <circle cx="92" cy="35" r="3" fill="#0EA5E9"/>
    <circle cx="103" cy="35" r="3" fill="#0EA5E9"/>
  </g>
</svg>
