<svg width="180" height="180" viewBox="0 0 180 180" fill="none" xmlns="http://www.w3.org/2000/svg">
  <style>
    @media (prefers-color-scheme: light) {
      .background { fill: #0EA5E9; }
      .falcon { fill: white; }
    }
    @media (prefers-color-scheme: dark) {
      .background { fill: #0EA5E9; }
      .falcon { fill: white; }
    }
  </style>
  <defs>
    <clipPath id="clip0">
      <rect width="180" height="180" rx="37" />
    </clipPath>
  </defs>
  <g clip-path="url(#clip0)">
    <rect class="background" width="180" height="180" rx="37" />
    <g transform="translate(30, 25) scale(0.85)">
      <!-- Falcon bird silhouette -->
      <path class="falcon" d="M60 40 Q50 45, 45 55 Q40 65, 40 80 Q40 95, 50 110 Q55 120, 60 125 L55 145 Q53 155, 58 160 Q62 165, 68 163 L75 140 Q80 125, 82 118 Q85 110, 95 108 Q105 106, 110 115 Q115 125, 120 140 L127 163 Q133 165, 137 160 Q142 155, 140 145 L135 125 Q140 120, 145 110 Q155 95, 155 80 Q155 65, 150 55 Q145 45, 135 40 Q125 35, 115 35 L110 30 Q105 25, 100 23 Q95 20, 90 20 Q85 20, 80 23 Q75 25, 70 30 L65 35 Q55 35, 60 40 Z"/>

      <!-- Wing details -->
      <path class="falcon" opacity="0.3" d="M70 60 Q75 70, 80 85 Q83 95, 85 105 L75 110 Q70 95, 68 85 Q66 75, 70 60 Z"/>
      <path class="falcon" opacity="0.3" d="M125 60 Q120 70, 115 85 Q112 95, 110 105 L120 110 Q125 95, 127 85 Q129 75, 125 60 Z"/>

      <!-- Head highlight -->
      <ellipse class="falcon" cx="97.5" cy="35" rx="15" ry="18" opacity="0.15"/>

      <!-- Eye -->
      <circle cx="92" cy="35" r="3" fill="#0EA5E9"/>
      <circle cx="103" cy="35" r="3" fill="#0EA5E9"/>

      <!-- Beak -->
      <path class="falcon" d="M97.5 42 L92 48 L97.5 46 L103 48 Z" opacity="0.4"/>

      <!-- Wing feathers left -->
      <path class="falcon" opacity="0.2" d="M55 80 Q48 85, 45 95 Q43 105, 48 112 L52 108 Q50 100, 52 92 Q54 84, 60 80 Z"/>
      <path class="falcon" opacity="0.2" d="M50 90 Q43 95, 40 105 Q38 115, 43 122 L47 118 Q45 110, 47 102 Q49 94, 55 90 Z"/>

      <!-- Wing feathers right -->
      <path class="falcon" opacity="0.2" d="M140 80 Q147 85, 150 95 Q152 105, 147 112 L143 108 Q145 100, 143 92 Q141 84, 135 80 Z"/>
      <path class="falcon" opacity="0.2" d="M145 90 Q152 95, 155 105 Q157 115, 152 122 L148 118 Q150 110, 148 102 Q146 94, 140 90 Z"/>

      <!-- Tail feathers -->
      <path class="falcon" opacity="0.25" d="M58 160 Q55 170, 60 178 L65 175 Q62 168, 64 162 Z"/>
      <path class="falcon" opacity="0.25" d="M137 160 Q140 170, 135 178 L130 175 Q133 168, 131 162 Z"/>
    </g>
  </g>
</svg>
